
<svg width="1024px" height="768px" viewBox="0 0 1024 768" version="1.1" xmlns="http://www.w3.org/2000/svg" xmlns:xlink="http://www.w3.org/1999/xlink">
    <g id="Web-1-1" stroke="none" stroke-width="1" fill="none" fill-rule="evenodd">
        <g id="Chat">
            <g id="bg" transform="translate(-92.000000, 0.000000)">
                <rect id="Rectangle" fill="#FFFFFE" x="92" y="0" width="1024" height="768"></rect>
                <path d="M92,50 L1116,50 L1116,161 C1000.66667,233.333333 822,270.666667 580,273 C338,275.333333 175.333333,238 92,161 L92,50 Z" id="Rectangle" fill="#1B46D5"></path>
                <g id="leaf" transform="translate(0.000000, 181.000000)">
                    <path d="M214,0 C214,0 91.4044783,29.2473847 35.4053572,87.5370084 C16.3991935,107.319439 6.56613495,126.280058 1.8704079,142.696625 C-7.92094354,176.927698 22.2455454,209.327202 57.0292539,201.938272 C73.7096344,198.394289 93.2837505,189.897327 114.320068,172.29288 C176.296796,120.424193 214,0 214,0" id="Fill-118" fill="#CCD6F7"></path>
                    <path d="M59.8395796,147.949507 C63.901781,144.12712 67.9652067,140.305964 72.0298566,136.483577 C91.5218121,143.376426 111.012543,150.270506 130.503275,157.163355 C130.947693,156.679711 131.389662,156.192375 131.829183,155.702578 C112.392321,148.828188 92.9566826,141.95503 73.5198202,135.080641 C77.3628733,131.466233 81.2047021,127.853056 85.0465309,124.238648 C103.794117,130.537095 122.256443,137.655152 140.372294,145.597742 C140.75917,145.111637 141.144822,144.625532 141.528025,144.135735 C123.521136,136.227603 105.178791,129.11816 86.5475131,122.825867 C90.2399783,119.355445 93.9299948,115.882561 97.6212357,112.410908 C115.112698,119.146235 132.60416,125.88033 150.095622,132.615656 C150.455564,132.106169 150.813057,131.595451 151.170551,131.083502 C133.811312,124.398632 116.449625,117.714993 99.089162,111.028893 C102.95915,107.389872 106.827913,103.749621 110.699125,100.10937 C127.550282,104.982729 144.19331,110.541557 160.590254,116.784625 C160.915916,116.2616 161.241578,115.737345 161.564791,115.211859 C145.35149,109.026632 128.898228,103.508414 112.23806,98.6608994 C116.223131,94.9123513 120.208202,91.1638032 124.193273,87.4152552 C139.267982,91.99572 154.130889,97.2271967 168.755059,103.092456 C169.057459,102.560817 169.358635,102.029178 169.658586,101.498769 C155.237649,95.7024261 140.581648,90.5250979 125.721189,85.9778605 C128.965564,82.9258581 132.212386,79.8738557 135.456761,76.8206227 C149.236169,80.4042642 162.838055,84.6192272 176.230587,89.4445906 C176.515847,88.9018757 176.801107,88.3603914 177.083918,87.8176764 C163.920329,83.0636905 150.555956,78.9041066 137.020182,75.3500006 C140.97587,71.6285267 144.932782,67.9070529 148.88847,64.185579 C160.951421,66.1250773 172.749924,69.3616766 184.123598,73.8129236 C184.388045,73.2652861 184.651268,72.7201098 184.913267,72.1749336 C173.808937,67.8135238 162.305488,64.6249197 150.542489,62.631273 C151.88921,61.3637075 153.237156,60.096142 154.583877,58.8285765 C154.899744,58.7547377 155.18378,58.5369133 155.286621,58.1689501 C156.261157,57.2508881 157.236918,56.3340568 158.212679,55.4159948 C168.843208,56.4398923 179.152972,59.3602156 188.736731,64.0514386 C188.99016,63.5001091 189.243588,62.951241 189.493344,62.4023728 C180.197293,57.8637499 170.234004,54.9495799 159.95852,53.7743128 C162.923755,50.9844381 165.888991,48.1945633 168.855451,45.4059192 C177.461,46.9319204 185.919635,49.0892431 194.194626,51.8631194 C194.43826,51.3019448 194.679445,50.7432314 194.920631,50.1869794 C186.937022,47.5017096 178.782012,45.3936128 170.489881,43.8676116 C173.244538,41.2758708 176.001644,38.6828995 178.757526,36.0899281 C184.280308,37.9961989 189.801865,39.9024698 195.324647,41.8087406 C196.236745,42.123786 197.150067,42.4462153 198.065838,42.7600301 C198.298453,42.2000861 198.529844,41.643834 198.756338,41.0912739 C197.403495,40.6273203 196.056774,40.1362925 194.716174,39.6735696 C189.896136,38.0085054 185.076098,36.3446718 180.256059,34.6808383 C182.587112,32.4890576 184.918164,30.2948155 187.249216,28.1030348 C192.450009,28.9411048 197.604279,30.0068443 202.708353,31.2916389 C202.933623,30.7181578 203.157669,30.1483686 203.376817,29.5859634 C198.598405,28.3786995 193.777142,27.3609552 188.914254,26.5364223 C191.635855,23.9766783 194.357457,21.4181651 197.077834,18.8571905 C200.285479,19.4872813 203.452723,20.2687416 206.583238,21.1941875 C206.799938,20.6145531 207.012965,20.0435333 207.218646,19.4823587 C204.410119,18.6504419 201.567313,17.9329753 198.695124,17.3373425 C200.335675,15.7928817 201.977451,14.2484208 203.619227,12.7039599 C205.511982,13.0633086 207.404738,13.4226572 209.297494,13.7820059 C209.510521,13.1900651 209.716202,12.6128921 209.914537,12.0541787 C208.359686,11.7588237 206.806059,11.4646992 205.251208,11.1693442 C207.70469,8.86188271 210.158171,6.55442123 212.611653,4.24695976 C213.529872,1.5050802 214,0 214,0 C214,0 212.514934,0.355656729 209.801902,1.06450889 C207.065609,3.63778993 204.331765,6.20984032 201.59792,8.78312136 C201.906442,6.91007796 202.069273,5.03088134 202.119469,3.15045407 C201.531809,3.31536065 200.92456,3.48642046 200.296498,3.66486414 C200.19733,6.089237 199.876566,8.51237921 199.321961,10.9219843 C197.41329,12.717497 195.504618,14.5142403 193.595947,16.309753 C194.20442,12.6682712 194.486007,9.00956024 194.450503,5.35946385 C193.860394,5.5342156 193.262939,5.71142864 192.652018,5.89479491 C192.663036,9.75656244 192.304319,13.6269445 191.556276,17.4690217 C191.50608,17.7225348 191.5575,17.9440511 191.66279,18.1261867 C188.15152,21.4292409 184.64025,24.7322951 181.12898,28.0353492 C181.721537,21.7369024 182.088825,15.4261491 182.241861,9.10801193 C181.63951,9.29999273 181.031036,9.49443481 180.416442,9.69256884 C180.238919,16.4426628 179.818987,23.1841422 179.137056,29.9096233 C175.978383,32.880403 172.818485,35.8524134 169.659811,38.8244238 C170.339293,30.1557525 170.8033,21.4735441 171.050607,12.7851825 C170.444582,12.9907004 169.836109,13.197449 169.22029,13.4078895 C168.95217,22.5048256 168.445313,31.5943778 167.699719,40.6679317 C163.828507,44.3094135 159.956071,47.952126 156.084859,51.5936079 C157.367917,40.1461377 158.209006,28.6568255 158.614247,17.147823 C158.003325,17.3693393 157.389955,17.5933169 156.772911,17.8185252 C156.330942,29.7508699 155.418844,41.6586018 154.035394,53.5207997 C151.482745,55.9217903 148.930096,58.3227809 146.377447,60.7237715 C145.68817,47.9988906 144.997669,35.2727791 144.308393,22.5466676 C143.719508,22.778029 143.1294,23.0106211 142.536842,23.2444439 C143.244483,36.278217 143.9509,49.3107594 144.656092,62.3433018 C139.706279,67.0000667 134.755241,71.6568316 129.805428,76.3123659 C131.559839,60.0579919 132.429086,43.7248566 132.41317,27.3769536 C131.809594,27.6304667 131.20357,27.8852104 130.597545,28.1424155 C130.581629,44.8767414 129.638924,61.5950689 127.770654,78.2272512 C123.237101,82.49144 118.703547,86.7556288 114.169993,91.0198176 C113.524791,72.8074857 112.880813,54.5951538 112.235611,36.3828219 C111.643054,36.6646398 111.050496,36.9476884 110.456715,37.2319677 C111.111711,55.7101192 111.765483,74.1895013 112.418031,92.6676528 C110.690555,94.2933363 108.961854,95.9190198 107.234378,97.5447034 C105.131044,99.5223517 103.028934,101.5 100.9256,103.477648 C99.8127187,83.5485651 98.6986128,63.6194818 97.5857312,43.6891679 C96.9992953,43.9968294 96.4140836,44.3057216 95.828872,44.6158444 C96.9552208,64.7750585 98.0815695,84.9342726 99.2079183,105.094717 C95.9635441,108.144258 92.7216185,111.196261 89.4784685,114.245802 C86.3859065,93.974599 83.2945688,73.7009348 80.2020068,53.4285013 C79.6425053,53.7656983 79.0842281,54.1028954 78.5259509,54.4425537 C81.6258586,74.7666743 84.7269906,95.090795 87.8268984,115.414916 C87.8440385,115.529366 87.879543,115.622895 87.9236175,115.707809 C83.2884474,120.067989 78.6545015,124.428168 74.0193314,128.788347 C71.2732441,106.748706 68.5283811,84.7115256 65.783518,62.6731149 C65.2227922,63.0570765 64.664515,63.4434994 64.1086864,63.8311529 C66.8694652,85.9950895 69.630244,108.156565 72.3910228,130.320501 C68.917706,133.586636 65.4456134,136.852771 61.9722965,140.120137 C56.9784088,119.101931 51.9832968,98.0837264 46.9894091,77.0667519 C46.4715335,77.5134765 45.9561065,77.9626623 45.4455766,78.4143094 C50.4468101,99.4608194 55.4480436,120.506099 60.4480528,141.552609 C56.7506905,145.031645 53.0533281,148.509451 49.3547415,151.987257 C42.3726033,132.347376 36.4972252,112.333378 31.735953,92.0351007 C31.2364418,92.5925834 30.7442764,93.1476048 30.2594567,93.7026262 C35.0452147,113.892606 40.9401815,133.798307 47.9247683,153.332353 C41.926961,158.974866 35.9267051,164.618609 29.9276735,170.261121 C23.6372604,152.693648 18.1805902,134.843126 13.5613359,116.767396 C13.1169178,117.531627 12.6884156,118.290936 12.2684834,119.051475 C16.8412146,136.703863 22.2158572,154.138426 28.3838411,171.303479 C28.4205698,171.406853 28.4744387,171.494229 28.534429,171.571759 C26.0099386,173.946906 23.4854481,176.322053 20.962182,178.694739 C15.3316623,164.896735 9.70114269,151.099961 4.07184733,137.301957 C3.76577429,138.185561 3.47194417,139.064242 3.19402985,139.934309 C8.64702714,153.297895 14.0988001,166.660251 19.5505731,180.021376 C17.0530171,182.37191 14.5542368,184.722444 12.0566808,187.071747 C12.9846943,188.139948 13.9592308,189.166307 14.9766176,190.149593 C15.6683427,189.498581 16.3600678,188.846339 17.0517928,188.196558 C29.0902577,193.131449 41.1287225,198.06634 53.1671873,203 C54.305779,202.858476 55.4504922,202.675109 56.6001025,202.44744 C43.9017442,197.243037 31.2021616,192.037404 18.5038033,186.831771 C20.7356879,184.732289 22.9687968,182.631576 25.20313,180.530863 C40.2790637,186.558568 55.3549974,192.585042 70.4321554,198.613977 C71.276917,198.317392 72.1314729,198.003577 72.9872531,197.679917 C57.5452561,191.505765 42.1020347,185.332844 26.6600377,179.158693 C30.1235602,175.901172 33.5870828,172.642422 37.0506053,169.384901 C54.0303133,176.531263 71.0124699,183.675164 87.9934021,190.820295 C88.6655385,190.458485 89.3388992,190.0856 90.0171571,189.707791 C72.8427866,182.481437 55.6684162,175.253853 38.4940457,168.027499 C41.5155988,165.185937 44.5371519,162.343144 47.5574806,159.501582 C47.6419568,159.422821 47.7252086,159.34529 47.8072362,159.266529 C66.2585434,165.963705 84.3450115,173.612171 102.001753,182.191005 C102.567376,181.799659 103.132999,181.40093 103.699846,180.996047 C85.9733201,172.348297 67.8121701,164.634607 49.289854,157.872207 C49.6791789,157.506705 50.0672796,157.141203 50.4566045,156.775701 C50.5557721,156.715399 50.6402483,156.637869 50.7014629,156.54434 C53.2320748,154.16427 55.7626867,151.78297 58.2945229,149.4029 C78.5614553,155.11679 98.5419034,161.799199 118.172204,169.424282 C118.675388,168.972635 119.177348,168.517296 119.678083,168.057034 C100.06125,160.401185 80.0930448,153.696625 59.8395796,147.949507" id="Fill-119" fill="#F8F9FB"></path>
                </g>
                <g id="leaf" transform="translate(1071.000000, 485.500000) scale(-1, 1) translate(-1071.000000, -485.500000) translate(964.000000, 384.000000)">
                    <path d="M214,0 C214,0 91.4044783,29.2473847 35.4053572,87.5370084 C16.3991935,107.319439 6.56613495,126.280058 1.8704079,142.696625 C-7.92094354,176.927698 22.2455454,209.327202 57.0292539,201.938272 C73.7096344,198.394289 93.2837505,189.897327 114.320068,172.29288 C176.296796,120.424193 214,0 214,0" id="Fill-118" fill="#CCD6F7"></path>
                    <path d="M59.8395796,147.949507 C63.901781,144.12712 67.9652067,140.305964 72.0298566,136.483577 C91.5218121,143.376426 111.012543,150.270506 130.503275,157.163355 C130.947693,156.679711 131.389662,156.192375 131.829183,155.702578 C112.392321,148.828188 92.9566826,141.95503 73.5198202,135.080641 C77.3628733,131.466233 81.2047021,127.853056 85.0465309,124.238648 C103.794117,130.537095 122.256443,137.655152 140.372294,145.597742 C140.75917,145.111637 141.144822,144.625532 141.528025,144.135735 C123.521136,136.227603 105.178791,129.11816 86.5475131,122.825867 C90.2399783,119.355445 93.9299948,115.882561 97.6212357,112.410908 C115.112698,119.146235 132.60416,125.88033 150.095622,132.615656 C150.455564,132.106169 150.813057,131.595451 151.170551,131.083502 C133.811312,124.398632 116.449625,117.714993 99.089162,111.028893 C102.95915,107.389872 106.827913,103.749621 110.699125,100.10937 C127.550282,104.982729 144.19331,110.541557 160.590254,116.784625 C160.915916,116.2616 161.241578,115.737345 161.564791,115.211859 C145.35149,109.026632 128.898228,103.508414 112.23806,98.6608994 C116.223131,94.9123513 120.208202,91.1638032 124.193273,87.4152552 C139.267982,91.99572 154.130889,97.2271967 168.755059,103.092456 C169.057459,102.560817 169.358635,102.029178 169.658586,101.498769 C155.237649,95.7024261 140.581648,90.5250979 125.721189,85.9778605 C128.965564,82.9258581 132.212386,79.8738557 135.456761,76.8206227 C149.236169,80.4042642 162.838055,84.6192272 176.230587,89.4445906 C176.515847,88.9018757 176.801107,88.3603914 177.083918,87.8176764 C163.920329,83.0636905 150.555956,78.9041066 137.020182,75.3500006 C140.97587,71.6285267 144.932782,67.9070529 148.88847,64.185579 C160.951421,66.1250773 172.749924,69.3616766 184.123598,73.8129236 C184.388045,73.2652861 184.651268,72.7201098 184.913267,72.1749336 C173.808937,67.8135238 162.305488,64.6249197 150.542489,62.631273 C151.88921,61.3637075 153.237156,60.096142 154.583877,58.8285765 C154.899744,58.7547377 155.18378,58.5369133 155.286621,58.1689501 C156.261157,57.2508881 157.236918,56.3340568 158.212679,55.4159948 C168.843208,56.4398923 179.152972,59.3602156 188.736731,64.0514386 C188.99016,63.5001091 189.243588,62.951241 189.493344,62.4023728 C180.197293,57.8637499 170.234004,54.9495799 159.95852,53.7743128 C162.923755,50.9844381 165.888991,48.1945633 168.855451,45.4059192 C177.461,46.9319204 185.919635,49.0892431 194.194626,51.8631194 C194.43826,51.3019448 194.679445,50.7432314 194.920631,50.1869794 C186.937022,47.5017096 178.782012,45.3936128 170.489881,43.8676116 C173.244538,41.2758708 176.001644,38.6828995 178.757526,36.0899281 C184.280308,37.9961989 189.801865,39.9024698 195.324647,41.8087406 C196.236745,42.123786 197.150067,42.4462153 198.065838,42.7600301 C198.298453,42.2000861 198.529844,41.643834 198.756338,41.0912739 C197.403495,40.6273203 196.056774,40.1362925 194.716174,39.6735696 C189.896136,38.0085054 185.076098,36.3446718 180.256059,34.6808383 C182.587112,32.4890576 184.918164,30.2948155 187.249216,28.1030348 C192.450009,28.9411048 197.604279,30.0068443 202.708353,31.2916389 C202.933623,30.7181578 203.157669,30.1483686 203.376817,29.5859634 C198.598405,28.3786995 193.777142,27.3609552 188.914254,26.5364223 C191.635855,23.9766783 194.357457,21.4181651 197.077834,18.8571905 C200.285479,19.4872813 203.452723,20.2687416 206.583238,21.1941875 C206.799938,20.6145531 207.012965,20.0435333 207.218646,19.4823587 C204.410119,18.6504419 201.567313,17.9329753 198.695124,17.3373425 C200.335675,15.7928817 201.977451,14.2484208 203.619227,12.7039599 C205.511982,13.0633086 207.404738,13.4226572 209.297494,13.7820059 C209.510521,13.1900651 209.716202,12.6128921 209.914537,12.0541787 C208.359686,11.7588237 206.806059,11.4646992 205.251208,11.1693442 C207.70469,8.86188271 210.158171,6.55442123 212.611653,4.24695976 C213.529872,1.5050802 214,0 214,0 C214,0 212.514934,0.355656729 209.801902,1.06450889 C207.065609,3.63778993 204.331765,6.20984032 201.59792,8.78312136 C201.906442,6.91007796 202.069273,5.03088134 202.119469,3.15045407 C201.531809,3.31536065 200.92456,3.48642046 200.296498,3.66486414 C200.19733,6.089237 199.876566,8.51237921 199.321961,10.9219843 C197.41329,12.717497 195.504618,14.5142403 193.595947,16.309753 C194.20442,12.6682712 194.486007,9.00956024 194.450503,5.35946385 C193.860394,5.5342156 193.262939,5.71142864 192.652018,5.89479491 C192.663036,9.75656244 192.304319,13.6269445 191.556276,17.4690217 C191.50608,17.7225348 191.5575,17.9440511 191.66279,18.1261867 C188.15152,21.4292409 184.64025,24.7322951 181.12898,28.0353492 C181.721537,21.7369024 182.088825,15.4261491 182.241861,9.10801193 C181.63951,9.29999273 181.031036,9.49443481 180.416442,9.69256884 C180.238919,16.4426628 179.818987,23.1841422 179.137056,29.9096233 C175.978383,32.880403 172.818485,35.8524134 169.659811,38.8244238 C170.339293,30.1557525 170.8033,21.4735441 171.050607,12.7851825 C170.444582,12.9907004 169.836109,13.197449 169.22029,13.4078895 C168.95217,22.5048256 168.445313,31.5943778 167.699719,40.6679317 C163.828507,44.3094135 159.956071,47.952126 156.084859,51.5936079 C157.367917,40.1461377 158.209006,28.6568255 158.614247,17.147823 C158.003325,17.3693393 157.389955,17.5933169 156.772911,17.8185252 C156.330942,29.7508699 155.418844,41.6586018 154.035394,53.5207997 C151.482745,55.9217903 148.930096,58.3227809 146.377447,60.7237715 C145.68817,47.9988906 144.997669,35.2727791 144.308393,22.5466676 C143.719508,22.778029 143.1294,23.0106211 142.536842,23.2444439 C143.244483,36.278217 143.9509,49.3107594 144.656092,62.3433018 C139.706279,67.0000667 134.755241,71.6568316 129.805428,76.3123659 C131.559839,60.0579919 132.429086,43.7248566 132.41317,27.3769536 C131.809594,27.6304667 131.20357,27.8852104 130.597545,28.1424155 C130.581629,44.8767414 129.638924,61.5950689 127.770654,78.2272512 C123.237101,82.49144 118.703547,86.7556288 114.169993,91.0198176 C113.524791,72.8074857 112.880813,54.5951538 112.235611,36.3828219 C111.643054,36.6646398 111.050496,36.9476884 110.456715,37.2319677 C111.111711,55.7101192 111.765483,74.1895013 112.418031,92.6676528 C110.690555,94.2933363 108.961854,95.9190198 107.234378,97.5447034 C105.131044,99.5223517 103.028934,101.5 100.9256,103.477648 C99.8127187,83.5485651 98.6986128,63.6194818 97.5857312,43.6891679 C96.9992953,43.9968294 96.4140836,44.3057216 95.828872,44.6158444 C96.9552208,64.7750585 98.0815695,84.9342726 99.2079183,105.094717 C95.9635441,108.144258 92.7216185,111.196261 89.4784685,114.245802 C86.3859065,93.974599 83.2945688,73.7009348 80.2020068,53.4285013 C79.6425053,53.7656983 79.0842281,54.1028954 78.5259509,54.4425537 C81.6258586,74.7666743 84.7269906,95.090795 87.8268984,115.414916 C87.8440385,115.529366 87.879543,115.622895 87.9236175,115.707809 C83.2884474,120.067989 78.6545015,124.428168 74.0193314,128.788347 C71.2732441,106.748706 68.5283811,84.7115256 65.783518,62.6731149 C65.2227922,63.0570765 64.664515,63.4434994 64.1086864,63.8311529 C66.8694652,85.9950895 69.630244,108.156565 72.3910228,130.320501 C68.917706,133.586636 65.4456134,136.852771 61.9722965,140.120137 C56.9784088,119.101931 51.9832968,98.0837264 46.9894091,77.0667519 C46.4715335,77.5134765 45.9561065,77.9626623 45.4455766,78.4143094 C50.4468101,99.4608194 55.4480436,120.506099 60.4480528,141.552609 C56.7506905,145.031645 53.0533281,148.509451 49.3547415,151.987257 C42.3726033,132.347376 36.4972252,112.333378 31.735953,92.0351007 C31.2364418,92.5925834 30.7442764,93.1476048 30.2594567,93.7026262 C35.0452147,113.892606 40.9401815,133.798307 47.9247683,153.332353 C41.926961,158.974866 35.9267051,164.618609 29.9276735,170.261121 C23.6372604,152.693648 18.1805902,134.843126 13.5613359,116.767396 C13.1169178,117.531627 12.6884156,118.290936 12.2684834,119.051475 C16.8412146,136.703863 22.2158572,154.138426 28.3838411,171.303479 C28.4205698,171.406853 28.4744387,171.494229 28.534429,171.571759 C26.0099386,173.946906 23.4854481,176.322053 20.962182,178.694739 C15.3316623,164.896735 9.70114269,151.099961 4.07184733,137.301957 C3.76577429,138.185561 3.47194417,139.064242 3.19402985,139.934309 C8.64702714,153.297895 14.0988001,166.660251 19.5505731,180.021376 C17.0530171,182.37191 14.5542368,184.722444 12.0566808,187.071747 C12.9846943,188.139948 13.9592308,189.166307 14.9766176,190.149593 C15.6683427,189.498581 16.3600678,188.846339 17.0517928,188.196558 C29.0902577,193.131449 41.1287225,198.06634 53.1671873,203 C54.305779,202.858476 55.4504922,202.675109 56.6001025,202.44744 C43.9017442,197.243037 31.2021616,192.037404 18.5038033,186.831771 C20.7356879,184.732289 22.9687968,182.631576 25.20313,180.530863 C40.2790637,186.558568 55.3549974,192.585042 70.4321554,198.613977 C71.276917,198.317392 72.1314729,198.003577 72.9872531,197.679917 C57.5452561,191.505765 42.1020347,185.332844 26.6600377,179.158693 C30.1235602,175.901172 33.5870828,172.642422 37.0506053,169.384901 C54.0303133,176.531263 71.0124699,183.675164 87.9934021,190.820295 C88.6655385,190.458485 89.3388992,190.0856 90.0171571,189.707791 C72.8427866,182.481437 55.6684162,175.253853 38.4940457,168.027499 C41.5155988,165.185937 44.5371519,162.343144 47.5574806,159.501582 C47.6419568,159.422821 47.7252086,159.34529 47.8072362,159.266529 C66.2585434,165.963705 84.3450115,173.612171 102.001753,182.191005 C102.567376,181.799659 103.132999,181.40093 103.699846,180.996047 C85.9733201,172.348297 67.8121701,164.634607 49.289854,157.872207 C49.6791789,157.506705 50.0672796,157.141203 50.4566045,156.775701 C50.5557721,156.715399 50.6402483,156.637869 50.7014629,156.54434 C53.2320748,154.16427 55.7626867,151.78297 58.2945229,149.4029 C78.5614553,155.11679 98.5419034,161.799199 118.172204,169.424282 C118.675388,168.972635 119.177348,168.517296 119.678083,168.057034 C100.06125,160.401185 80.0930448,153.696625 59.8395796,147.949507" id="Fill-119" fill="#F8F9FB"></path>
                </g>
            </g>
        </g>
    </g>
</svg>
