
<svg width="16px" height="10px" viewBox="0 0 16 10" version="1.1" xmlns="http://www.w3.org/2000/svg" xmlns:xlink="http://www.w3.org/1999/xlink">
    <g id="Web-1-1" stroke="none" stroke-width="1" fill="none" fill-rule="evenodd">
        <g id="Login-web-2" transform="translate(-476.000000, -344.000000)" fill="#BDCCD7" fill-rule="nonzero">
            <g id="modal" transform="translate(172.000000, 184.000000)">
                <g id="form" transform="translate(50.000000, 71.000000)">
                    <g id="Field" transform="translate(0.000000, 60.454545)">
                        <g id="email" transform="translate(254.454545, 28.636364)">
                            <path d="M1.07760532,0 C0.936589889,0 0.802600443,0.028395 0.679106874,0.0757211538 L6.93137295,5.203125 C7.20497694,5.42758846 7.51017273,5.42758846 7.78447716,5.203125 L14.0424905,0.0703557692 C13.9211198,0.0250580769 13.7885169,0 13.6496135,0 L1.07760532,0 Z M0.0112250554,0.887019231 C0.00420948559,0.935697115 0,0.987755192 0,1.03846154 L0,7.96153846 C0,8.53688077 0.480576053,9 1.07760532,9 L13.6496674,9 C14.2466967,9 14.7272727,8.53688077 14.7272727,7.96153846 L14.7272727,1.03846154 C14.7272727,0.987755192 14.7230632,0.935697115 14.7160477,0.887019231 L8.48605211,5.99278846 C7.839902,6.52216154 6.87524767,6.52283654 6.22990576,5.99278846 L0.0112250554,0.887019231 Z" id="Shape"></path>
                        </g>
                    </g>
                </g>
            </g>
        </g>
    </g>
</svg>
