
<svg width="26px" height="24px" viewBox="0 0 26 24" version="1.1" xmlns="http://www.w3.org/2000/svg" xmlns:xlink="http://www.w3.org/1999/xlink">
    <g id="Web-1-1" stroke="none" stroke-width="1" fill="none" fill-rule="evenodd">
        <g id="Chat-Empty" transform="translate(-836.000000, -625.000000)" fill="#1B47DB" fill-rule="nonzero">
            <g id="form" transform="translate(127.000000, 99.000000)">
                <g id="chat">
                    <g id="bg">
                        <g id="type" transform="translate(239.000000, 507.000000)">
                            <g id="np_send_2498632_000000" transform="translate(470.000000, 19.000000)">
                                <path d="M6.49035484,15.8358621 L0.845419355,11.4393103 C-0.0948580645,10.56 0.301558065,9.87628966 1.4892129,9.28953103 L24.8586,0.20222069 C25.5515,0.00663724138 25.749729,0.299205517 25.6514323,0.885931034 L17.9277548,22.0394483 C17.4821903,23.1628138 16.7401419,23.3584138 15.7490806,22.6262069 L8.52024194,17.3503448 L24.2640806,1.47268966 L6.4888871,15.8358621 L6.49035484,15.8358621 Z M5.25195806,17.1062897 L11.2915065,21.454469 L8.02347419,23.7012414 C7.18149355,24.0439117 6.58684839,23.7497338 6.29036452,22.8704276 L5.25015484,17.1062897 L5.25195806,17.1062897 Z" id="Shape"></path>
                            </g>
                        </g>
                    </g>
                </g>
            </g>
        </g>
    </g>
</svg>
